<svg width="154" height="61" viewBox="0 0 154 61" fill="none" xmlns="http://www.w3.org/2000/svg">
<path d="M116.11 54.0156C115.814 55.0698 111.168 58.1091 110.071 58.7873C108.397 59.823 105.704 61.8698 103.905 60.2792C102.418 58.9661 103.148 56.4199 102.95 54.5458C102.566 50.9639 99.8233 50.5139 97.5248 49.0897C79.6688 38.0606 82.7463 11.0887 100.871 3.45031C101.71 3.0989 102.654 3.41332 103.192 4.22093C104.009 5.43543 103.559 7.19246 102.292 7.72881C91.7209 12.2169 84.8254 24.8552 91.9897 37.777C95.0946 43.3748 97.9307 43.8187 102.407 46.9073C105.309 48.9048 106.818 52.012 106.647 55.8651C106.752 56.0007 109.16 54.3731 109.456 54.1759C110.394 53.5532 113.313 51.1982 114.081 51.1119C115.661 50.9454 116.582 52.3325 116.11 54.0217V54.0156Z" fill="#FFB342"/>
<path d="M129.408 42.752C128.76 43.5966 126.429 46.3832 125.732 46.8764C125.03 47.3696 123.681 47.3511 123.17 46.5743C121.624 44.207 125.315 41.593 126.572 39.9716C136.314 27.4135 130.192 11.1873 116.747 6.95193C116.61 6.90877 116.478 6.86563 116.341 6.82864C115.183 6.48956 114.58 5.04694 115.079 3.82011C115.48 2.83988 116.456 2.33435 117.378 2.63027C132.37 7.40814 141.888 26.6121 129.413 42.7459L129.408 42.752Z" fill="#FFB342"/>
<path d="M116.747 6.95813C130.192 11.1935 136.314 27.4197 126.571 39.9778C125.315 41.5992 121.623 44.2132 123.17 46.5805L121.7 47.8197C119.396 45.7298 116.143 44.99 113.532 42.45C104.826 33.9793 105.336 20.3362 113.729 12.0319C114.497 11.2736 115.051 9.70155 114.536 8.61034L116.741 6.95813H116.747Z" fill="#1F7168" fill-opacity="0.2"/>
<path d="M133.253 55.1253C131.421 56.4446 126.171 60.4888 124.35 60.8032C119.972 61.5677 121.322 56.9069 120.954 54.1204C120.51 50.7974 115.337 49.1945 113.011 47.3635C104.069 40.3355 100.855 26.5197 106.181 15.62C107.278 13.3698 109.884 9.47348 111.793 8.10486C112.632 7.50069 114.07 7.61783 114.541 8.61039C115.057 9.69543 114.503 11.2675 113.735 12.032C105.342 20.3362 104.832 33.9793 113.538 42.45C116.149 44.99 119.396 45.736 121.7 47.8197C123.077 49.0712 124.333 51.5742 124.591 53.547C124.679 54.2437 124.564 54.928 124.641 55.563C124.674 55.8527 124.542 55.9205 124.915 55.8651C135.288 48.1958 153.441 38.7942 148.641 21.3658C147.083 15.7001 143.522 11.6004 139.117 9.01728C138.124 8.43777 137.751 7.05065 138.311 5.95945C138.843 4.91757 140.023 4.54767 140.961 5.13334C146.786 8.77685 151.34 14.948 152.678 22.3953C155.553 38.3811 143.632 47.6656 133.253 55.1253Z" fill="#1F7168"/>
<path d="M131.723 6.22446C132.901 6.22446 133.856 5.15076 133.856 3.82628C133.856 2.5018 132.901 1.4281 131.723 1.4281C130.544 1.4281 129.589 2.5018 129.589 3.82628C129.589 5.15076 130.544 6.22446 131.723 6.22446Z" fill="#1F7168"/>
<path d="M127.35 5.7683C128.529 5.7683 129.484 4.69458 129.484 3.37011C129.484 2.04563 128.529 0.971924 127.35 0.971924C126.172 0.971924 125.217 2.04563 125.217 3.37011C125.217 4.69458 126.172 5.7683 127.35 5.7683Z" fill="#1F7168"/>
<path d="M136.095 7.37118C137.273 7.37118 138.229 6.29749 138.229 4.97301C138.229 3.64853 137.273 2.57483 136.095 2.57483C134.916 2.57483 133.961 3.64853 133.961 4.97301C133.961 6.29749 134.916 7.37118 136.095 7.37118Z" fill="#1F7168"/>
<path d="M127.701 20.5766C124.443 21.0637 121.047 21.6 118.359 23.9119C116.977 25.1018 116.006 26.6738 114.997 28.2459C114.059 29.7132 113.044 31.088 111.382 31.39C109.056 31.8216 110.043 35.798 112.358 35.3726C115.907 34.7191 117.35 31.0941 119.484 28.3569C121.552 25.7059 124.739 25.1449 127.701 24.7072C128.683 24.5592 129.539 23.8626 129.539 22.6419C129.539 21.6432 128.694 20.4287 127.701 20.5766Z" fill="#1F7168"/>
<path d="M15.8866 33.1286V50.1008C15.8866 50.9022 15.7056 51.6605 15.3325 52.3633C14.965 53.0662 14.4658 53.6272 13.8404 54.0402C13.2151 54.4594 12.5293 54.6629 11.7943 54.6629H9.35861C8.62352 54.6629 7.9433 54.4594 7.31244 54.0402C6.68707 54.4594 6.00136 54.6629 5.26627 54.6629H0.00548583V42.3452L4.06491 40.1258V50.1008H5.26627V35.4713H1.0752L0 30.8722H5.26079C5.99587 30.8722 6.6761 31.0818 7.30696 31.4948C7.93233 31.9079 8.43152 32.4689 8.79907 33.1717C9.16661 33.8807 9.35312 34.6452 9.35312 35.4713V50.1008H11.7888V34.3554L15.8811 33.1286H15.8866Z" fill="#FFB342"/>
<path d="M13.8405 28.0609L12.1838 29.9597L13.8405 31.8216L15.5301 29.9597L13.8405 28.0609Z" fill="#FFB342"/>
<path d="M25.2178 32.2223C24.4279 31.3222 23.4679 30.8722 22.3433 30.8722H21.1419C20.0174 30.8722 19.0574 31.3222 18.2674 32.2223C17.4775 33.1224 17.0825 34.2074 17.0825 35.4713V50.1008C17.0825 50.9022 17.2635 51.6605 17.6311 52.3633C18.0041 53.0662 18.4923 53.6272 19.1122 54.0402C19.7266 54.4594 20.4014 54.6629 21.1419 54.6629H22.272L20.8128 59.188L24.6473 60.7601L25.3275 58.6455C26.0407 56.2843 26.3972 53.9231 26.3972 51.5619V35.4713C26.3972 34.2074 26.0023 33.1224 25.2123 32.2223H25.2178ZM22.3488 50.1008H21.1474V35.4713H22.3488V50.1008Z" fill="#FFB342"/>
<path d="M56.5355 33.1285V50.1007H55.2684V33.1285L51.2089 34.4417V50.1007H50.0076V33.1285L45.9152 34.4417V50.1007H43.4796V30.866H38.153C37.4124 30.866 36.7376 31.0756 36.1232 31.4886C35.5034 31.9017 35.0151 32.4627 34.6421 33.1655C34.2746 33.8745 34.0935 34.6389 34.0935 35.465V50.0946H31.6908V33.2025L27.6314 34.4417V54.4409L26.0405 59.1818L29.8695 60.7538L30.5498 58.6393C30.9722 57.2953 31.2739 55.9636 31.4659 54.6505C31.5372 54.6567 31.614 54.6567 31.6853 54.6567H34.0881V56.0438C34.0881 56.8699 34.2691 57.6344 34.6366 58.3433C35.0097 59.0462 35.4979 59.6072 36.1178 60.0202C36.7322 60.4333 37.4069 60.6429 38.1475 60.6429H39.4092C40.1498 60.6429 40.8245 60.4333 41.4444 60.0202C42.0588 59.6072 42.547 59.0462 42.92 58.3433C43.2876 57.6405 43.4741 56.8699 43.4741 56.0438V54.6567H45.9097C46.6448 54.6567 47.3251 54.4532 47.9559 54.034C48.5813 54.4532 49.2615 54.6567 50.0021 54.6567H51.2034C51.944 54.6567 52.6188 54.4532 53.2332 54.034C53.853 54.4532 54.5278 54.6567 55.2629 54.6567H56.4971C57.2103 54.6567 57.885 54.4532 58.5104 54.034C59.1358 53.6209 59.635 53.0599 60.0025 52.3571C60.3701 51.6543 60.5566 50.896 60.5566 50.0946V33.1224H56.5301L56.5355 33.1285ZM39.4256 56.05H38.1639V54.6628H39.4256V56.05ZM39.4256 50.1007H38.1639V35.4712H39.4256V50.1007Z" fill="#FFB342"/>
<path d="M53.2224 26.3038L51.9223 27.8389L53.2224 29.3L54.5554 27.8389L53.2224 26.3038ZM54.3909 28.5356L53.2224 29.8487L52.0869 28.5356L50.6277 30.1754L52.0869 31.8153L53.2224 30.5392L54.3909 31.8153L55.8172 30.1754L54.3909 28.5356Z" fill="#FFB342"/>
<path d="M61.7964 27.4753L65.8558 26.2361V54.6629H61.7964V27.4753Z" fill="#1F7168"/>
<path d="M82.3513 33.1655C81.9838 32.4627 81.49 31.9017 80.8756 31.4886C80.2612 31.0756 79.581 30.866 78.8459 30.866H77.6446C76.9095 30.866 76.2293 31.0756 75.5984 31.4886C74.973 31.9017 74.4738 32.4627 74.1063 33.1655C73.7387 33.8745 73.5522 34.6389 73.5522 35.465V48.7506H78.8459V50.1007H71.1166V33.2087L67.0572 34.4478V54.4471L65.4663 59.1879L69.3008 60.76L69.981 58.6454C70.4034 57.3015 70.7052 55.9698 70.8972 54.6567C70.9685 54.6628 71.0453 54.6628 71.1166 54.6628H78.8459C79.5591 54.6628 80.2338 54.4594 80.8592 54.0402C81.4846 53.6271 81.9838 53.0661 82.3513 52.3633C82.7188 51.6605 82.9054 50.9022 82.9054 50.1007V35.4712C82.9054 34.6389 82.7188 33.8806 82.3513 33.1717V33.1655ZM77.6391 44.1885V35.4712H78.8405V44.1885H77.6391Z" fill="#1F7168"/>
<path d="M78.226 25.7983L76.5693 27.6971L78.226 29.559L79.9156 27.6971L78.226 25.7983Z" fill="#1F7168"/>
<path d="M12.5952 17.9689C12.5019 17.6175 12.3648 17.3586 12.1838 17.1921C12.0027 17.0256 11.7668 16.9393 11.4816 16.9393C11.1579 16.9393 10.8837 16.9948 10.6587 17.112C10.4338 17.2291 10.2254 17.4264 10.0279 17.7161C9.8304 18.0059 9.60548 18.4251 9.35314 18.9861C9.20503 19.3005 9.07337 19.5348 8.9472 19.6951C8.82103 19.8554 8.68389 19.9663 8.53029 20.0218C8.37669 20.0835 8.18469 20.1143 7.95429 20.1143H7.2576C6.86812 20.1143 6.40732 20.1143 5.88069 20.102C5.35406 20.0896 4.83841 20.0773 4.33372 20.0588L3.75773 21.8035C4.46538 21.9083 5.01395 21.9946 5.39795 22.0686C5.78195 22.1426 6.06172 22.2104 6.23178 22.2782C6.40183 22.346 6.50606 22.4262 6.528 22.5186C6.50606 22.6173 6.34698 22.7283 6.05075 22.8639C5.75452 22.9995 5.35955 23.1105 4.86584 23.1968C4.37761 23.2831 3.84001 23.3263 3.26401 23.3263C2.52344 23.3263 1.97487 23.1906 1.62379 22.9194C1.2727 22.6481 1.09716 22.2659 1.09716 21.7727C1.09716 21.5199 1.12459 21.2117 1.17945 20.8418C1.2343 20.478 1.32207 20.0403 1.44276 19.5348L0.773503 19.3005C0.329161 20.7555 0.104248 21.9206 0.104248 22.8022C0.104248 23.6838 0.340133 24.3188 0.811904 24.7627C1.28367 25.2066 1.99133 25.4285 2.92938 25.4285C3.59315 25.4285 4.24595 25.3299 4.88229 25.1326C5.51864 24.9353 6.01784 24.6825 6.36892 24.3805C6.53349 24.2263 6.68709 24.0291 6.82972 23.801C6.97235 23.5729 7.08206 23.3263 7.16435 23.0612C7.24115 22.8022 7.28503 22.5618 7.28503 22.346C7.28503 22.3029 7.27406 22.2659 7.26857 22.2227H7.65257C7.95977 22.2227 8.23406 22.1426 8.48092 21.9885C8.72777 21.8343 8.96366 21.5507 9.18308 21.15C9.21051 21.1007 9.23246 21.0452 9.25988 20.9959C9.32571 21.1993 9.45188 21.3904 9.64388 21.5692C9.87977 21.7912 10.1595 21.9638 10.4832 22.0871C10.8069 22.2104 11.1415 22.2782 11.4761 22.2782C11.6626 22.2782 11.8601 22.1426 12.0631 21.8652C12.266 21.5877 12.4416 21.2487 12.5787 20.8418C12.7159 20.4349 12.7872 20.0403 12.7872 19.6519C12.7872 19.4115 12.7652 19.1279 12.7268 18.795C12.6884 18.4621 12.6391 18.1908 12.5787 17.975L12.5952 17.9689ZM11.9973 20.1575C11.9973 20.1575 11.9698 20.1821 11.9479 20.1883C11.6626 20.1883 11.3719 20.1451 11.0757 20.065C10.7794 19.9848 10.5216 19.8739 10.3022 19.7444C10.1047 19.6273 9.96754 19.504 9.89074 19.3745C10.0005 19.1834 10.1102 19.0231 10.2199 18.9245C10.3461 18.8073 10.4887 18.721 10.6478 18.6655C10.8069 18.61 11.0043 18.5854 11.2457 18.5854C11.3938 18.5854 11.5145 18.6224 11.6078 18.6902C11.701 18.758 11.7778 18.869 11.8327 19.0108C11.8711 19.1526 11.915 19.3313 11.9589 19.5533C12.0027 19.7752 12.0247 19.9417 12.0247 20.0526C12.0247 20.102 12.0192 20.139 12.0027 20.1513L11.9973 20.1575Z" fill="#010101"/>
<path d="M17.5706 21.6801C17.7681 21.5075 17.9546 21.2671 18.1247 20.9588C18.2947 20.6506 18.4264 20.3115 18.5196 19.9478C18.6129 19.584 18.6568 19.2265 18.6568 18.8874C18.6568 18.5668 18.6019 18.2894 18.4867 18.0489C18.3715 17.8085 18.2234 17.5989 18.0369 17.4078C17.8504 17.2167 17.5706 16.9639 17.2031 16.6433C16.7148 16.2241 16.3254 15.8789 16.0511 15.6014L15.3763 17.2783C15.5958 17.5064 15.8371 17.7284 16.095 17.9318C16.3583 18.1353 16.6326 18.3387 16.9178 18.5298C17.2744 18.8011 17.5322 19.0045 17.6858 19.1525C17.8394 19.3004 17.9217 19.4237 17.9327 19.5285C17.8833 19.6457 17.7407 19.769 17.4938 19.8984C17.247 20.0279 16.9452 20.1327 16.5832 20.219C16.2211 20.3053 15.8536 20.3485 15.486 20.3485C15.1514 20.3485 14.921 20.293 14.7784 20.1759C14.6412 20.0587 14.5699 19.8738 14.5699 19.621V19.2203L13.9336 19.2511C13.9062 19.6087 13.8842 19.9046 13.8678 20.1389C13.8513 20.3732 13.8403 20.6013 13.8403 20.8294C13.8403 21.3534 13.961 21.7541 14.2024 22.0315C14.4438 22.3089 14.8003 22.4508 15.2721 22.4508C15.6945 22.4508 16.1169 22.3829 16.5393 22.2412C16.9617 22.0994 17.3018 21.9144 17.5706 21.6925V21.6801Z" fill="#010101"/>
<path d="M27.4176 17.9689C27.3244 17.6175 27.1872 17.3586 27.0062 17.1921C26.8252 17.0256 26.5893 16.9393 26.304 16.9393C25.9804 16.9393 25.7061 16.9948 25.4812 17.112C25.2563 17.2291 25.0478 17.4264 24.8503 17.7161C24.6528 18.0059 24.4279 18.4251 24.1756 18.9861C24.0275 19.3005 23.8958 19.5348 23.7696 19.6951C23.6435 19.8554 23.5063 19.9663 23.3527 20.0218C23.1991 20.0835 23.0071 20.1143 22.7767 20.1143C22.4805 20.1143 22.2501 20.065 22.091 19.9602C21.9319 19.8554 21.8003 19.6519 21.6906 19.356C21.5808 19.0601 21.4492 18.5792 21.2956 17.9134L20.0942 18.721C20.2862 19.3005 20.4618 19.8739 20.6154 20.441C20.769 21.0082 20.8567 21.4028 20.8787 21.6247C20.8074 21.9022 20.5934 22.1611 20.2423 22.4138C19.8912 22.6666 19.3866 22.9009 18.7283 23.1166C18.07 23.3386 17.2636 23.5235 16.3091 23.6838C16.5285 24.14 16.6986 24.4668 16.8138 24.6641C16.9345 24.8613 17.0771 25.0771 17.2526 25.3052C17.7902 25.2127 18.3114 25.071 18.8215 24.8737C19.3317 24.6764 19.7596 24.4483 20.1216 24.1832C20.4672 23.9428 20.758 23.6468 20.9939 23.2831C21.2298 22.9194 21.4053 22.5186 21.5205 22.0809C21.5479 21.9761 21.5589 21.8651 21.5808 21.7603C21.6522 21.8775 21.7399 21.9761 21.8606 22.0501C22.0362 22.1549 22.2446 22.2104 22.486 22.2104C22.486 22.2104 22.486 22.2104 22.4915 22.2104C22.7932 22.2104 23.0675 22.1302 23.3143 21.9761C23.5612 21.822 23.7971 21.5384 24.0165 21.1377C24.0439 21.0884 24.0659 21.0329 24.0933 20.9836C24.1591 21.187 24.2853 21.3781 24.4773 21.5569C24.7132 21.7788 24.9929 21.9515 25.3166 22.0748C25.6403 22.1981 25.9749 22.2659 26.3095 22.2659C26.496 22.2659 26.6935 22.1303 26.8965 21.8528C27.0995 21.5754 27.275 21.2363 27.4121 20.8294C27.5493 20.4226 27.6206 20.028 27.6206 19.6396C27.6206 19.3992 27.5987 19.1156 27.5603 18.7827C27.5219 18.4497 27.4725 18.1785 27.4121 17.9627L27.4176 17.9689ZM26.8197 20.1575C26.8197 20.1575 26.7923 20.1821 26.7703 20.1883C26.4851 20.1883 26.1943 20.1451 25.8981 20.065C25.6019 19.9848 25.344 19.8739 25.1246 19.7444C24.9271 19.6273 24.79 19.504 24.7132 19.3745C24.8229 19.1834 24.9326 19.0231 25.0423 18.9245C25.1685 18.8073 25.3111 18.721 25.4702 18.6655C25.6293 18.61 25.8268 18.5854 26.0681 18.5854C26.2163 18.5854 26.3369 18.6224 26.4302 18.6902C26.5235 18.758 26.6003 18.869 26.6551 19.0108C26.6935 19.1526 26.7374 19.3313 26.7813 19.5533C26.8252 19.7752 26.8471 19.9417 26.8471 20.0526C26.8471 20.102 26.8416 20.139 26.8252 20.1513L26.8197 20.1575Z" fill="#010101"/>
<path d="M35.8271 16.9948C35.5308 16.7667 35.2236 16.6495 34.911 16.6495C34.6257 16.6495 34.313 16.7728 33.9784 17.0256C33.6986 17.2352 33.3859 17.5434 33.0458 17.938L33.15 13.3574L31.6963 13.8814L31.9981 19.319C31.839 19.5471 31.6799 19.7875 31.5098 20.0464C31.1313 20.0156 30.7528 19.9786 30.3853 19.9293C30.3907 20.3177 30.4127 20.6444 30.4566 20.9095C30.495 21.1746 30.5279 21.4582 30.5443 21.7541C30.8022 21.9021 31.1423 22.0192 31.5702 22.0994C31.9926 22.1795 32.4204 22.2227 32.8538 22.2227C33.3859 22.2227 33.8742 22.1857 34.3185 22.1055C34.7628 22.0254 35.1523 21.9021 35.4815 21.7295C35.7283 21.6 35.9532 21.3966 36.1617 21.1068C36.3702 20.817 36.5347 20.4903 36.6609 20.1204C36.7816 19.7505 36.8474 19.3929 36.8474 19.0539C36.8474 18.6593 36.7542 18.2771 36.5622 17.901C36.3702 17.525 36.1288 17.229 35.8326 16.9948H35.8271ZM35.5418 19.8677C35.284 19.9416 34.9439 20.0033 34.5215 20.0464C34.0991 20.0896 33.6163 20.1142 33.0787 20.1142C32.8099 20.1142 32.5466 20.1081 32.2833 20.0958C32.5795 19.7444 32.8428 19.4484 33.0732 19.2142C33.3366 18.9429 33.5889 18.7395 33.8193 18.5977C34.0497 18.462 34.2746 18.3881 34.494 18.3881C34.7135 18.3881 34.9329 18.4559 35.1523 18.5977C35.3718 18.7333 35.5583 18.9059 35.7119 19.1032C35.8655 19.3005 35.9642 19.4793 35.9971 19.6334C35.9478 19.7135 35.7996 19.7937 35.5418 19.8677Z" fill="#010101"/>
<path d="M40.7807 23.0797L40.0127 24.2078C40.1389 24.362 40.3144 24.5346 40.5393 24.7257C40.7642 24.9168 40.9727 25.0648 41.1537 25.1758L41.9217 24.0476C41.7352 23.9428 41.5322 23.7948 41.3073 23.5975C41.0824 23.4064 40.9069 23.2276 40.7807 23.0735V23.0797Z" fill="#010101"/>
<path d="M45.098 22.1487C45.3613 22.1055 45.5917 22.0316 45.7837 21.9268C46.0032 21.8158 46.2116 21.6 46.4036 21.2918C46.6011 20.9774 46.7547 20.6259 46.8699 20.2437C46.9851 19.8615 47.0455 19.5039 47.0455 19.1833C47.0455 18.9429 47.018 18.6285 46.9577 18.2339C46.8973 17.8394 46.8205 17.4263 46.7273 17.0071L45.5259 17.7654C45.6631 18.1908 45.7947 18.5977 45.9209 18.9922C46.0416 19.3806 46.1129 19.6642 46.1348 19.8368C46.08 19.9293 45.9264 19.9971 45.6685 20.0464C45.4107 20.0958 44.9993 20.1266 44.4343 20.1266C44.0009 20.1266 43.6882 20.0279 43.4907 19.8245C43.2932 19.6211 43.1945 19.2881 43.1945 18.8196V18.0058L42.3771 18.1414L42.3387 19.0107C42.3332 19.2573 42.2784 19.4608 42.1742 19.6334C42.0699 19.806 41.9054 19.9231 41.675 20.0094C41.4446 20.0896 41.1374 20.1327 40.7424 20.1327H40.5943C40.1499 20.1327 39.8318 20.0033 39.6343 19.7444C39.4368 19.4854 39.3435 19.06 39.349 18.4805L39.36 18.0921C39.3655 17.0441 39.371 16.2303 39.3819 15.6631C39.3874 15.0959 39.3874 14.3315 39.3819 13.3698L37.9282 13.9431C38.0489 15.7371 38.1586 17.6359 38.2574 19.6334C38.2793 20.2437 38.3671 20.7431 38.5316 21.1253C38.6962 21.5075 38.9211 21.7911 39.2174 21.9699C39.5081 22.1487 39.8702 22.235 40.3035 22.235H40.4516C40.8576 22.235 41.2032 22.1857 41.4884 22.0809C41.7737 21.9761 42.0096 21.8158 42.1961 21.6062C42.3497 21.4274 42.4704 21.2116 42.5691 20.9589C42.635 21.3534 42.7831 21.6678 43.0299 21.8774C43.3097 22.1179 43.6772 22.235 44.1435 22.235C44.5166 22.235 44.8347 22.2103 45.098 22.1672V22.1487Z" fill="#010101"/>
<path d="M44.5494 16.0269C44.7524 16.1995 44.9499 16.3475 45.1364 16.4708L45.7288 15.5707C45.8385 15.7187 45.9812 15.8666 46.1677 16.0269C46.3707 16.1995 46.5681 16.3475 46.7601 16.4708L47.4952 15.4104C47.2977 15.2933 47.0893 15.1453 46.8808 14.9665C46.6669 14.7939 46.5078 14.6275 46.3926 14.4795L45.7947 15.3796C45.6301 15.2625 45.4545 15.1268 45.2735 14.9665C45.076 14.7939 44.9224 14.6275 44.8127 14.4795L44.0776 15.5275C44.1928 15.6817 44.3519 15.8481 44.5549 16.0269H44.5494Z" fill="#010101"/>
<path d="M49.6896 17.8024L48.4169 18.6531C48.6364 19.2635 48.8284 19.8553 48.9874 20.4287C49.152 21.002 49.2398 21.4027 49.2617 21.6247C49.1904 21.9021 48.9765 22.161 48.6254 22.4138C48.2743 22.6666 47.7696 22.9008 47.1113 23.1166C46.453 23.3385 45.6467 23.5235 44.6921 23.6838C44.9116 24.14 45.0816 24.4667 45.1968 24.664C45.3175 24.8613 45.4601 25.077 45.6357 25.3052C46.1733 25.2127 46.6944 25.0709 47.2046 24.8736C47.7148 24.6763 48.1426 24.4482 48.5047 24.1831C48.8558 23.9427 49.1465 23.6468 49.3824 23.2892C49.6183 22.9316 49.7938 22.5371 49.9145 22.0994C50.0352 21.6617 50.0956 21.1931 50.0956 20.6938C50.0956 20.367 50.0626 19.954 49.9968 19.4669C49.931 18.9799 49.8268 18.4189 49.6896 17.8024Z" fill="#010101"/>
<path d="M51.6534 22.3396L52.4872 22.1485L52.6354 13.3511L51.1816 13.8751L51.6534 22.3396Z" fill="#010101"/>
<path d="M62.9704 16.9947L61.7691 17.753C61.9062 18.1784 62.0379 18.5853 62.164 18.9799C62.2847 19.3682 62.356 19.6518 62.378 19.8245C62.3231 19.9169 62.1695 19.9847 61.9117 20.0341C61.6539 20.0834 61.2424 20.1142 60.6774 20.1142C60.4031 20.1142 60.1892 20.0649 60.0356 19.9724C59.882 19.8799 59.7668 19.732 59.69 19.5347C59.6187 19.3374 59.5638 19.0723 59.5309 18.7333C59.4925 18.3634 59.4651 18.0489 59.4486 17.8023C59.4322 17.5557 59.4102 17.2413 59.3828 16.8714C59.3389 16.1501 59.284 15.4905 59.2237 14.9048L58.0223 15.4535C58.0552 15.7186 58.0882 15.996 58.1156 16.2796C58.0004 16.3659 57.8687 16.4645 57.7206 16.5817C57.2653 16.9516 56.8703 17.2968 56.5467 17.6112C56.3218 17.827 56.1243 18.0798 55.9542 18.3695C55.7842 18.6593 55.6525 18.9614 55.5538 19.2634C55.4605 19.5717 55.4111 19.8491 55.4111 20.1019C55.4111 20.4595 55.5318 20.743 55.7787 20.9588C56.0255 21.1684 56.3602 21.2794 56.7826 21.2794C57.0952 21.2794 57.4079 21.2424 57.7261 21.1746C58.0443 21.1068 58.3021 21.0081 58.4996 20.891C58.4612 20.6444 58.4557 20.3793 58.4996 20.1019C58.5051 20.0464 58.5051 19.9724 58.5106 19.9108C58.5215 20.0279 58.538 20.145 58.5544 20.2745C58.6038 20.743 58.7026 21.1253 58.8562 21.4089C59.0098 21.6986 59.2182 21.9021 59.4706 22.0315C59.7229 22.1548 60.0246 22.2165 60.3812 22.2226C60.3812 22.2226 60.3812 22.2226 60.3867 22.2226C60.7542 22.2226 61.0669 22.198 61.3302 22.1548C61.5935 22.1117 61.8239 22.0377 62.0159 21.9329C62.2353 21.8219 62.4438 21.6061 62.6358 21.2979C62.8333 20.9835 62.9869 20.6321 63.1021 20.2498C63.2173 19.8676 63.2776 19.51 63.2776 19.1895C63.2776 18.949 63.2502 18.6346 63.1899 18.24C63.1295 17.8455 63.0527 17.4324 62.9595 17.0132L62.9704 16.9947ZM57.1117 19.2511C56.8648 19.2511 56.6783 19.2326 56.5467 19.1895C56.415 19.1463 56.3382 19.0847 56.3163 19.0045C56.3272 18.9244 56.4863 18.7641 56.7826 18.536C57.0623 18.3202 57.5615 17.9873 58.2527 17.5434C58.2747 17.7715 58.3021 18.0058 58.324 18.24C58.3679 18.573 58.4008 18.8566 58.4283 19.1093C58.2527 19.1463 58.0552 19.1771 57.8303 19.2018C57.567 19.2326 57.3256 19.2449 57.1117 19.2449V19.2511Z" fill="#010101"/>
<path d="M62.2243 16.4708L62.9923 15.3426C62.8058 15.2378 62.6028 15.0898 62.3779 14.8926C62.153 14.7014 61.9774 14.5227 61.8513 14.3685L61.0833 15.4967C61.2094 15.6509 61.385 15.8296 61.6099 16.0146C61.8348 16.2057 62.0433 16.3537 62.2243 16.4646V16.4708Z" fill="#010101"/>
<path d="M71.6761 17.9686C71.5828 17.6172 71.4457 17.3583 71.2647 17.1919C71.0836 17.0254 70.8478 16.9391 70.5625 16.9391C70.2388 16.9391 69.9646 16.9946 69.7396 17.1117C69.5147 17.2289 69.3063 17.4261 69.1088 17.7159C68.9113 18.0056 68.6864 18.4249 68.434 18.9859C68.2859 19.3003 68.1543 19.5346 68.0281 19.6949C67.9019 19.8551 67.7648 19.9661 67.6112 20.0216C67.4576 20.0833 67.2656 20.1141 67.0352 20.1141C66.5909 20.1141 66.2727 19.9846 66.0752 19.7257C65.8777 19.4667 65.7844 19.0414 65.7899 18.4619L65.8009 18.0735C65.8064 17.0254 65.8119 16.2116 65.8229 15.6445C65.8283 15.0773 65.8283 14.3128 65.8229 13.3511L64.3691 13.9244C64.4898 15.7184 64.5995 17.6173 64.6983 19.6147C64.7202 20.225 64.808 20.7244 64.9726 21.1066C65.1371 21.4889 65.3621 21.7725 65.6583 21.9512C65.949 22.13 66.3111 22.2163 66.7445 22.2163C66.7445 22.2163 66.7499 22.2163 66.7554 22.2163C66.7554 22.2163 66.7609 22.2163 66.7664 22.2163C67.0626 22.2163 67.3314 22.1362 67.5783 21.9821C67.8251 21.8279 68.061 21.5443 68.2804 21.1436C68.3079 21.0943 68.3298 21.0388 68.3572 20.9895C68.4231 21.1929 68.5492 21.3841 68.7412 21.5628C68.9771 21.7848 69.2569 21.9574 69.5806 22.0807C69.9042 22.204 70.2388 22.2718 70.5735 22.2718C70.76 22.2718 70.9575 22.1362 71.1604 21.8588C71.3634 21.5813 71.539 21.2423 71.6761 20.8354C71.8132 20.4285 71.8846 20.0339 71.8846 19.6455C71.8846 19.4051 71.8626 19.1215 71.8242 18.7886C71.7858 18.4557 71.7364 18.1844 71.6761 17.9686ZM71.0782 20.1572C71.0782 20.1572 71.0507 20.1819 71.0288 20.188C70.7435 20.188 70.4528 20.1449 70.1566 20.0647C69.8603 19.9846 69.6025 19.8736 69.3831 19.7442C69.1856 19.627 69.0484 19.5037 68.9716 19.3743C69.0814 19.1832 69.1911 19.0229 69.3008 18.9242C69.427 18.8071 69.5696 18.7208 69.7287 18.6653C69.8878 18.6098 70.0852 18.5851 70.3266 18.5851C70.4747 18.5851 70.5954 18.6221 70.6887 18.69C70.7819 18.7578 70.8587 18.8687 70.9136 19.0105C70.952 19.1523 70.9959 19.3311 71.0398 19.5531C71.0836 19.775 71.1056 19.9414 71.1056 20.0524C71.1056 20.1017 71.1001 20.1387 71.0836 20.1511L71.0782 20.1572Z" fill="#010101"/>
<path d="M82.7409 18.3264C82.7025 17.9442 82.6531 17.5743 82.6037 17.2106L81.4517 17.901C81.5505 18.2956 81.6547 18.6963 81.7535 19.097C81.8522 19.4978 81.918 19.7875 81.94 19.9601C81.918 20.0095 81.8851 20.0526 81.8303 20.0773C81.7754 20.1019 81.7096 20.1143 81.6218 20.1143C81.2378 20.1143 80.9416 20.0218 80.7386 19.843C80.5356 19.6642 80.4369 19.393 80.4369 19.0292V18.4929L79.7183 18.5607L79.6799 19.1279C79.6469 19.4484 79.5537 19.695 79.3946 19.8615C79.241 20.0279 79.0161 20.1143 78.7253 20.1143C78.4511 20.1143 78.2481 20.0156 78.1109 19.8245C77.9738 19.6334 77.9025 19.3621 77.9025 19.0169V18.3326L77.2058 18.4004L77.1564 19.0354C77.118 19.4053 76.9754 19.6827 76.7395 19.8492C76.4982 20.0218 76.1416 20.1081 75.6534 20.1081C75.209 20.1081 74.8908 19.9786 74.6934 19.7197C74.4959 19.4608 74.4026 19.0354 74.4081 18.4559L74.4191 18.0675C74.4246 17.0194 74.43 16.2057 74.441 15.6385C74.4465 15.0713 74.4465 14.3068 74.441 13.3451L72.9873 13.9185C73.108 15.7125 73.2177 17.6113 73.3164 19.6087C73.3384 20.2191 73.4262 20.7184 73.5907 21.1007C73.7553 21.4829 73.9802 21.7665 74.2764 21.9453C74.5672 22.1241 74.9292 22.2104 75.3626 22.2104C75.3626 22.2104 75.3681 22.2104 75.3736 22.2104C75.3736 22.2104 75.3791 22.2104 75.3846 22.2104C75.7192 22.2104 76.0154 22.1672 76.2623 22.0809C76.5146 21.9946 76.7231 21.8589 76.8876 21.6678C77.0248 21.5137 77.1345 21.3103 77.2332 21.0698C77.2771 21.4151 77.3923 21.6863 77.5898 21.8774C77.8092 22.0994 78.1 22.2042 78.462 22.2042C78.7857 22.2042 79.0709 22.1056 79.3123 21.9083C79.5263 21.7357 79.6908 21.4706 79.8115 21.1377C79.8554 21.3164 79.9267 21.4767 80.0309 21.6247C80.1626 21.8035 80.3381 21.9453 80.5685 22.0501C80.7989 22.1549 81.0513 22.2042 81.3311 22.2042C81.5779 22.2042 81.8138 22.0686 82.0442 21.7973C82.2746 21.5261 82.4611 21.1685 82.6037 20.7184C82.7464 20.2684 82.8177 19.7937 82.8177 19.2882C82.8177 19.0169 82.7957 18.6963 82.7573 18.3141L82.7409 18.3264Z" fill="#010101"/>
</svg>
