<svg width="42" height="50" viewBox="0 0 42 50" fill="none" xmlns="http://www.w3.org/2000/svg">
<path d="M10.2539 18.0822C10.2539 24.1433 14.1261 31.3783 21.2795 31.3783C28.433 31.3783 32.3052 24.1433 32.3052 18.0822C32.3052 12.021 27.3686 7.10718 21.2795 7.10718C15.1904 7.10718 10.2539 12.021 10.2539 18.0822Z" fill="#EBA08C"/>
<path d="M31.0777 18.7129C30.5188 17.9277 30.23 16.9827 30.0615 16.0377C29.8743 14.9916 29.8342 13.855 30.3503 12.9233C30.5108 12.6358 30.7274 12.3696 31.0189 12.2206C31.5376 11.9571 32.1982 12.1221 32.6394 12.5001C33.0806 12.8781 33.34 13.4238 33.5219 13.9721C34.0541 15.5852 34.0193 17.3234 33.7171 18.9765C33.5727 19.7644 33.6021 20.3607 32.6849 20.0093C32.035 19.7591 31.4761 19.2746 31.075 18.7129H31.0777Z" fill="#000035"/>
<path d="M11.0186 18.7129C11.5775 17.9277 11.8664 16.9827 12.0348 16.0377C12.222 14.9916 12.2621 13.855 11.746 12.9233C11.5856 12.6358 11.369 12.3696 11.0775 12.2206C10.5587 11.9571 9.89816 12.1221 9.45692 12.5001C9.01568 12.8781 8.75629 13.4238 8.57444 13.9721C8.04228 15.5852 8.07705 17.3234 8.37923 18.9765C8.52364 19.7644 8.49422 20.3607 9.41146 20.0093C10.0613 19.7591 10.6202 19.2746 11.0213 18.7129H11.0186Z" fill="#000035"/>
<path d="M24.1703 17.4566C24.1703 17.9943 24.6089 18.4308 25.1491 18.4308C25.6892 18.4308 26.1278 17.9943 26.1278 17.4566C26.1278 16.9189 25.6892 16.4823 25.1491 16.4823C24.6089 16.4823 24.1703 16.9189 24.1703 17.4566Z" fill="#000035"/>
<path d="M28.4757 16.8523C28.0452 15.6864 27.1092 14.7521 26.0208 14.1558C25.1677 13.6074 24.0152 13.5223 23.1461 14.1026L23.1568 14.2064C24.0633 14.5657 24.7586 14.8133 25.6571 14.9943C26.7321 15.327 27.6895 16.0058 28.3848 16.9029L28.4757 16.8523Z" fill="#000035"/>
<path d="M16.7173 18.4308C16.1767 18.4308 15.7385 17.9946 15.7385 17.4566C15.7385 16.9185 16.1767 16.4823 16.7173 16.4823C17.2578 16.4823 17.696 16.9185 17.696 17.4566C17.696 17.9946 17.2578 18.4308 16.7173 18.4308Z" fill="#000035"/>
<path d="M13.4789 16.9029C14.1769 16.0032 15.1316 15.3271 16.2066 14.9943C17.1051 14.8133 17.7977 14.5631 18.707 14.2064L18.7177 14.1026C17.9742 13.6101 17.0088 13.5888 16.22 13.9509C15.4792 14.3395 14.7438 14.816 14.2143 15.4602C13.864 15.8861 13.5699 16.3519 13.388 16.855L13.4789 16.9056V16.9029Z" fill="#000035"/>
<path d="M24.2906 24.2019C21.6111 26.6189 19.5386 26.3633 17.2281 23.6748C18.9878 26.8504 22.1005 27.1592 24.2906 24.2019Z" fill="#000035"/>
<path d="M20.4826 39.4385C17.6613 39.4385 15.9338 37.2637 15.0727 35.7544C16.1451 35.2087 16.9286 34.6258 17.1719 33.9709C18.0919 31.4954 17.7228 28.6951 17.7228 28.6951L20.766 28.9027L24.0259 28.6951C24.0259 28.6951 23.4402 31.4927 24.3601 33.9709C24.6195 34.6684 25.486 35.2833 26.6653 35.8582C25.6732 37.1838 23.5338 39.4385 20.4799 39.4385H20.4826Z" fill="#EBA08C"/>
<path d="M4.62469 40.1599C6.58218 38.6985 10.8609 37.5752 13.8934 36.2948C14.9497 38.1501 17.0757 40.8253 20.5414 40.8253C24.2478 40.8253 26.8551 38.1209 28.096 36.4865C31.0884 37.6896 35.0435 38.773 36.9047 40.1599C39.9319 42.4198 41.3385 52 41.3385 52H0.190895C0.190895 52 1.59752 42.4198 4.62469 40.1599Z" fill="#1F7168"/>
<path d="M20.5441 40.8253C17.0757 40.8253 14.9524 38.1528 13.8961 36.2948C14.3159 36.1191 14.709 35.9381 15.0727 35.7544C15.9338 37.2664 17.6613 39.4385 20.4826 39.4385C23.5365 39.4385 25.6758 37.1838 26.6679 35.8582C27.1065 36.0712 27.5905 36.2814 28.0986 36.4864C26.8605 38.1208 24.2505 40.8253 20.5441 40.8253Z" fill="#114D47"/>
<path d="M26.5636 29.8317C24.689 30.6861 22.6406 31.1813 20.5868 31.1333C18.5357 31.0535 16.605 30.1351 14.9389 28.9532C16.3776 30.4918 18.4341 31.5539 20.5681 31.6471C22.6914 31.6817 24.8494 31.0721 26.5636 29.829V29.8317Z" fill="#000035"/>
<g style="mix-blend-mode:multiply" opacity="0.2">
<path d="M15.1235 23.3979C13.8372 23.3979 12.7943 22.6102 12.7943 21.6384C12.7943 20.6667 13.8372 19.8789 15.1235 19.8789C16.4099 19.8789 17.4528 20.6667 17.4528 21.6384C17.4528 22.6102 16.4099 23.3979 15.1235 23.3979Z" fill="#EBA08C"/>
</g>
<g style="mix-blend-mode:multiply" opacity="0.2">
<path d="M26.4192 23.3979C25.1328 23.3979 24.09 22.6102 24.09 21.6384C24.09 20.6667 25.1328 19.8789 26.4192 19.8789C27.7056 19.8789 28.7484 20.6667 28.7484 21.6384C28.7484 22.6102 27.7056 23.3979 26.4192 23.3979Z" fill="#EBA08C"/>
</g>
<path d="M21.0683 16.0645C20.8089 18.0529 20.6645 20.2889 19.0386 21.6704L18.9236 21.7689L18.9985 21.8913C19.5226 22.7458 20.3222 23.4086 21.2207 23.8345C20.8303 23.5364 20.4639 23.217 20.135 22.8656C19.8087 22.5142 19.5199 22.1336 19.2953 21.721L19.2525 21.9393C21.0335 20.5764 21.2287 18.1274 21.0709 16.0645H21.0683Z" fill="#000035"/>
<path d="M8.49155 17.3554C7.37642 16.2854 6.44847 7.64485 6.9325 6.19412C7.09563 6.7398 7.46734 7.45585 7.9059 7.83118C7.6679 7.17369 7.48338 6.49225 7.45664 5.79483C7.39781 4.33611 7.77754 2.84812 8.38726 1.51451C9.60936 2.41156 11.1497 2.84545 12.6793 2.88538C14.2089 2.92797 15.7653 2.86409 17.204 2.35034C16.7735 1.90314 16.4392 1.30954 16.2306 0.729248C17.6346 1.12587 19.1161 1.15249 20.5762 1.14983C22.0363 1.14717 23.5124 1.11522 24.9431 1.40004C26.3738 1.68487 27.8152 2.51804 28.7271 3.62805C28.6281 2.89071 28.3714 1.8712 28.3741 1.12587C28.9998 1.95638 30.0401 2.4089 30.7167 3.19949C31.2756 3.85165 31.5563 4.71943 31.4841 5.56325C31.6446 5.3636 32.0939 5.28109 32.3559 5.27842C32.618 5.2731 32.8747 5.34497 33.1234 5.42217C33.9578 5.67771 34.7761 5.99447 35.5649 6.36714C34.7975 6.89952 33.7839 7.22161 32.8587 7.05657C33.9979 7.89507 34.9098 9.31918 35.0141 10.706C35.1184 12.0929 34.7333 16.5995 33.7331 17.5923C32.5057 17.5604 31.1071 14.0414 30.1765 13.2614C29.2485 12.4815 28.6094 11.3821 28.3981 10.2056C26.9247 11.6057 24.9993 12.556 22.9401 12.6279C23.2183 11.6377 23.7718 10.6688 24.5553 9.98199C23.3573 10.8498 22.0443 10.8977 20.5521 10.9456C19.0599 10.9935 17.5276 10.9376 16.1183 11.4194C14.5405 11.9598 12.075 13.8045 10.9785 15.0343" fill="#000035"/>
<path d="M7.32296 19.9268C7.47004 20.7094 7.90594 21.4335 8.45682 21.9765C8.8312 22.3438 9.26977 22.642 9.73775 22.7671C10.2057 22.8922 10.7058 22.8363 11.0775 22.5514C11.4171 22.2906 11.6311 21.862 11.7354 21.4015C11.9734 20.3394 11.6498 19.1043 10.9946 18.178C10.54 17.5364 9.89285 17.012 9.20024 16.9242C7.80164 16.7485 7.06089 18.5426 7.32296 19.9268Z" fill="#EBA08C"/>
<g style="mix-blend-mode:multiply">
<path d="M11.2621 21.5586C10.9278 21.54 10.5935 21.4202 10.3101 21.2179C10.2245 21.1567 10.1363 21.0688 10.1389 20.9624C10.1389 20.9011 10.1737 20.8479 10.2058 20.8C10.3956 20.5125 10.6337 20.2596 10.9064 20.06C10.7085 19.6154 10.508 19.1656 10.2111 18.7849C9.9143 18.4043 9.5105 18.0955 9.05589 18.0343C8.60128 17.9704 8.10655 18.202 7.93273 18.6465C7.93273 18.6465 7.32302 19.9269 8.75905 21.3137C10.2726 22.7751 11.2621 21.5586 11.2621 21.5586Z" fill="#EBA08C"/>
</g>
<path d="M7.93272 18.6464C8.29106 18.0049 9.1361 18.0129 9.6442 18.4494C10.179 18.8727 10.4598 19.5142 10.7486 20.1264L10.8021 19.9215C10.5374 20.1291 10.3101 20.3793 10.1336 20.6641C9.66024 21.3003 10.8075 21.5958 11.2594 21.5559C10.9011 21.476 10.4465 21.303 10.2593 20.9915C10.2593 20.9676 10.2593 20.9569 10.2753 20.9276C10.4919 20.6082 10.7941 20.3287 11.115 20.1184C10.8155 19.4157 10.4973 18.6464 9.82604 18.1965C9.23237 17.7254 8.13863 17.8399 7.93005 18.6464H7.93272Z" fill="#000035"/>
<path d="M35.5382 19.9268C35.3911 20.7094 34.9552 21.4335 34.4043 21.9765C34.0299 22.3438 33.5914 22.642 33.1234 22.7671C32.6554 22.8922 32.1553 22.8363 31.7836 22.5514C31.444 22.2906 31.2301 21.862 31.1258 21.4015C30.8878 20.3394 31.2113 19.1043 31.8665 18.178C32.3211 17.5364 32.9683 17.012 33.6609 16.9242C35.0595 16.7485 35.8002 18.5426 35.5382 19.9268Z" fill="#EBA08C"/>
<g style="mix-blend-mode:multiply">
<path d="M31.6018 21.5586C31.936 21.54 32.2703 21.4202 32.5511 21.2179C32.6367 21.1567 32.7249 21.0688 32.7222 20.9624C32.7222 20.9011 32.6875 20.8479 32.6554 20.8C32.4655 20.5125 32.2275 20.2596 31.9547 20.06C32.1526 19.6154 32.3532 19.1656 32.65 18.7849C32.9469 18.4043 33.3507 18.0955 33.8053 18.0343C34.2599 17.9704 34.7546 18.202 34.9284 18.6465C34.9284 18.6465 35.5381 19.9269 34.1021 21.3137C32.5885 22.7751 31.5991 21.5586 31.5991 21.5586H31.6018Z" fill="#EBA08C"/>
</g>
<path d="M34.9285 18.6464C34.7199 17.8399 33.6261 17.7254 33.0325 18.1965C32.3613 18.6491 32.0457 19.4157 31.7435 20.1184C32.0671 20.3314 32.3666 20.6109 32.5832 20.9276C32.5993 20.9569 32.6019 20.9676 32.5993 20.9915C32.4121 21.303 31.9575 21.476 31.5991 21.5559C32.051 21.5958 33.1983 21.3003 32.7249 20.6641C32.5484 20.3793 32.3211 20.1317 32.0564 19.9215L32.1099 20.1264C32.3987 19.5142 32.6795 18.87 33.2143 18.4494C33.7224 18.0129 34.5675 18.0049 34.9258 18.6464H34.9285Z" fill="#000035"/>
<g opacity="0.35">
<path d="M28.842 5.01221C28.0505 6.6679 26.2668 7.46115 24.5847 7.93497L24.6837 8.0654C24.9618 7.6395 25.3121 7.25885 25.6678 6.88884L26.7669 5.78948L26.6011 5.62977C24.3013 7.85245 20.7981 7.00064 17.9341 7.72468C15.6878 8.20116 13.4896 9.15944 11.7888 10.7166C11.2245 11.2357 10.7191 11.8133 10.2939 12.4469C12.1204 9.97664 15.0192 8.55519 17.9822 7.9536C20.2258 7.43453 22.5978 7.79122 24.7933 7.01395C25.5234 6.75309 26.2213 6.3538 26.7669 5.78682L26.6011 5.6271C25.8229 6.42833 24.9832 7.19762 24.4083 8.17188C26.1625 7.66079 28.0933 6.79834 28.8394 5.01221H28.842Z" fill="white"/>
<path d="M22.8519 3.06641C21.3865 4.26426 19.5707 5.02024 17.6881 5.19326L17.763 5.40355C18.3941 4.99628 19.0813 4.62095 19.6188 4.038L20.4291 3.15957L19.4477 3.849C18.7685 4.32282 17.894 4.30951 17.0891 4.26426C16.2494 4.20037 15.3829 4.17109 14.5406 4.28023C12.8558 4.50117 11.2192 5.12405 9.85007 6.12758C11.6257 5.01225 13.7169 4.41599 15.8162 4.4426C17.0677 4.44793 18.485 4.84189 19.5975 4.05663L19.429 3.86764C18.8353 4.52246 17.9822 4.96167 17.2388 5.47276C19.3113 5.32902 21.3437 4.49318 22.8493 3.06641H22.8519Z" fill="white"/>
<path d="M30.1819 7.56763C30.1685 9.76635 31.3799 11.9039 33.2037 13.123C33.4337 13.2641 33.7786 13.4637 34.0247 13.5729C33.899 13.4797 33.7733 13.3918 33.6449 13.304C31.7917 11.9358 30.5242 9.84355 30.1819 7.56763Z" fill="white"/>
</g>
</svg>
